<?xml version="1.0" standalone="no"?>
<!DOCTYPE svg PUBLIC "-//W3C//DTD SVG 20010904//EN"
 "http://www.w3.org/TR/2001/REC-SVG-20010904/DTD/svg10.dtd">
<svg version="1.0" xmlns="http://www.w3.org/2000/svg"
 width="1024.000000pt" height="1024.000000pt" viewBox="0 0 1024.000000 1024.000000"
 preserveAspectRatio="xMidYMid meet">
<metadata>
Created by potrace 1.11, written by Peter Selinger 2001-2013
</metadata>
<g transform="translate(0.000000,1024.000000) scale(0.100000,-0.100000)"
fill="#000000" stroke="none">
<path d="M0 5120 l0 -5120 5120 0 5120 0 0 5120 0 5120 -5120 0 -5120 0 0
-5120z m5365 3495 c459 -95 832 -416 989 -853 14 -40 26 -77 26 -83 0 -5 -102
-9 -254 -9 l-254 0 -11 28 c-22 52 -90 146 -153 210 -322 328 -839 336 -1177
18 -105 -100 -189 -245 -233 -401 -22 -79 -22 -88 -28 -1010 -6 -923 -6 -931
-28 -1010 -30 -109 -109 -266 -174 -346 -73 -91 -77 -95 -1020 -887 -459 -386
-863 -731 -897 -767 -256 -274 -292 -709 -85 -1021 115 -173 272 -287 480
-350 119 -36 305 -38 429 -5 94 25 219 84 291 138 28 21 337 279 688 573 350
294 665 554 699 577 125 85 292 134 457 134 170 0 319 -42 455 -130 33 -21
348 -280 700 -576 352 -296 667 -558 699 -582 379 -280 927 -180 1191 217 98
148 139 300 133 495 -4 116 -8 141 -40 232 -38 111 -78 183 -149 272 -30 36
-384 340 -946 813 -494 415 -920 779 -947 809 -144 160 -232 361 -251 577 l-7
72 239 0 239 0 12 -72 c15 -102 66 -199 144 -274 35 -34 432 -371 883 -750
948 -795 902 -756 979 -842 215 -246 326 -542 326 -872 0 -350 -123 -656 -367
-911 -251 -262 -577 -401 -943 -402 -159 0 -269 16 -405 60 -118 38 -269 114
-366 185 -47 35 -372 304 -722 598 -389 327 -659 547 -695 566 -108 58 -248
52 -347 -13 -22 -15 -327 -267 -678 -562 -351 -295 -663 -554 -693 -576 -387
-290 -913 -342 -1351 -134 -320 152 -577 445 -687 783 -46 140 -60 238 -60
411 1 175 20 297 70 437 61 170 186 368 309 488 30 30 455 390 943 800 930
782 935 786 984 909 l23 56 6 920 c6 877 7 924 27 1015 80 375 284 672 596
869 153 96 348 166 531 190 98 14 324 6 420 -14z"/>
</g>
</svg>
